<svg fill="none" xmlns="http://www.w3.org/2000/svg" viewBox="0 0 141 34"><path d="M70.143 18.413c-2.879 0-5.258 2.27-5.258 5.383 0 3.087 2.354 5.382 5.258 5.382 2.905 0 5.258-2.27 5.258-5.382 0-3.113-2.353-5.383-5.258-5.383zm0 8.623c-1.577 0-2.954-1.352-2.954-3.264 0-1.939 1.378-3.265 2.954-3.265 1.577 0 2.954 1.326 2.954 3.265 0 1.912-1.377 3.265-2.954 3.265zm-11.442-8.623c-2.904 0-5.258 2.27-5.258 5.383 0 3.087 2.354 5.382 5.258 5.382s5.258-2.27 5.258-5.382c0-3.113-2.354-5.383-5.258-5.383zm0 8.623c-1.578 0-2.954-1.352-2.954-3.264 0-1.939 1.378-3.265 2.954-3.265 1.578 0 2.954 1.326 2.954 3.265 0 1.912-1.352 3.265-2.954 3.265zm-13.595-6.964v2.27h5.307c-.15 1.275-.575 2.219-1.201 2.857-.776.79-1.978 1.658-4.106 1.658-3.28 0-5.809-2.703-5.809-6.046 0-3.342 2.53-6.097 5.809-6.097 1.777 0 3.055.715 4.006 1.634l1.576-1.608c-1.327-1.3-3.104-2.295-5.582-2.295-4.483 0-8.238 3.749-8.238 8.316s3.755 8.316 8.238 8.316c2.428 0 4.231-.816 5.683-2.348 1.477-1.505 1.928-3.622 1.928-5.331 0-.536-.05-1.02-.125-1.429l-7.486.103zm55.633 1.76c-.425-1.2-1.777-3.419-4.482-3.419s-4.932 2.169-4.932 5.383c0 3.01 2.227 5.382 5.183 5.382 2.403 0 3.781-1.505 4.356-2.373l-1.777-1.224c-.602.893-1.403 1.48-2.58 1.48-1.176 0-2.002-.536-2.528-1.633l6.985-2.985-.225-.611zm-7.111 1.811c-.049-2.067 1.578-3.137 2.729-3.137.926 0 1.677.459 1.953 1.148l-4.682 1.99zm-5.684 5.179h2.305V13.056h-2.305v15.766zm-3.754-9.21h-.075c-.526-.638-1.502-1.199-2.754-1.199-2.63 0-5.009 2.373-5.009 5.383s2.405 5.357 5.009 5.357c1.25 0 2.227-.561 2.754-1.225h.075v.766c0 2.067-1.077 3.163-2.804 3.163-1.403 0-2.28-1.046-2.63-1.914l-2.002.868C77.329 32.24 78.858 34 81.386 34c2.703 0 4.982-1.633 4.982-5.587v-9.669H84.19v.868zm-2.63 7.425c-1.577 0-2.903-1.353-2.903-3.24 0-1.887 1.327-3.265 2.904-3.265 1.553 0 2.804 1.378 2.804 3.265 0 1.862-1.252 3.24-2.804 3.24zm29.92-13.98h-5.508v15.765h2.305v-5.97h3.203c2.554 0 5.058-1.889 5.058-4.898 0-3.01-2.504-4.898-5.058-4.898zm.075 7.602H108.3v-5.41h3.255c1.702 0 2.704 1.455 2.704 2.705-.024 1.224-1 2.705-2.704 2.705zm14.172-2.271c-1.652 0-3.38.74-4.081 2.423l2.028.868c.452-.867 1.253-1.148 2.104-1.148 1.203 0 2.403.74 2.428 2.04v.154c-.425-.255-1.3-.613-2.403-.613-2.203 0-4.432 1.25-4.432 3.547 0 2.117 1.803 3.469 3.806 3.469 1.553 0 2.403-.715 2.928-1.556h.075v1.225h2.229V22.75c-.025-2.78-2.053-4.363-4.682-4.363zm-.275 8.623c-.751 0-1.804-.383-1.804-1.326 0-1.224 1.302-1.684 2.429-1.684 1.001 0 1.477.23 2.103.536-.175 1.454-1.401 2.474-2.728 2.474zm12.994-8.265-2.629 6.81h-.075l-2.728-6.81h-2.478l4.105 9.54-2.328 5.332h2.403L141 18.746h-2.554zm-20.63 10.076h2.303V13.056h-2.303v15.766zM41.397 8.087a3.79 3.79 0 0 1-1.923-.506 3.823 3.823 0 0 1-1.402-1.384 3.883 3.883 0 0 1-.512-1.973A3.799 3.799 0 0 1 39.473.867 3.79 3.79 0 0 1 41.398.36c.553 0 1.068.1 1.545.3.478.2.877.479 1.197.837l-.798.806a2.423 2.423 0 0 0-.86-.62 2.68 2.68 0 0 0-1.094-.217c-.47 0-.91.113-1.32.34a2.57 2.57 0 0 0-.982.972c-.245.42-.368.902-.368 1.446 0 .544.123 1.026.368 1.446.246.42.573.744.982.971.41.227.853.341 1.33.341.437 0 .802-.065 1.095-.196.294-.131.556-.307.788-.527.15-.152.276-.341.378-.568.11-.228.181-.475.215-.744h-2.486V3.914h3.57c.035.193.052.392.052.6 0 .467-.072.918-.215 1.352a2.852 2.852 0 0 1-.685 1.116c-.69.737-1.593 1.105-2.712 1.105zM46.076.526h4.45V1.63h-3.304v2.045H50.2v1.096h-2.977v2.045h3.305v1.105h-4.45V.526zm7.104 1.105h-2.047V.526h5.238V1.63h-2.046v6.291h-1.146v-6.29zM59.367.526h1.146v7.396h-1.146V.526zm4.046 1.105h-2.047V.526h5.239V1.63h-2.047v6.291h-1.146v-6.29zm9.416 6.456c-.71 0-1.355-.169-1.934-.506a3.743 3.743 0 0 1-1.372-1.405 3.967 3.967 0 0 1-.49-1.952c0-.71.163-1.357.49-1.942A3.743 3.743 0 0 1 72.83.36c.709 0 1.35.173 1.922.517.58.344 1.037.813 1.372 1.405a3.86 3.86 0 0 1 .501 1.942c0 .71-.168 1.36-.501 1.952a3.674 3.674 0 0 1-1.36 1.405 3.776 3.776 0 0 1-1.934.506zm0-1.105a2.6 2.6 0 0 0 1.329-.351c.403-.234.72-.558.952-.971.232-.42.347-.899.347-1.436 0-.537-.115-1.012-.347-1.426a2.519 2.519 0 0 0-.952-.981 2.598 2.598 0 0 0-1.33-.351 2.598 2.598 0 0 0-2.292 1.332c-.232.414-.348.889-.348 1.426 0 .537.116 1.016.348 1.436a2.615 2.615 0 0 0 2.293 1.322zM77.678.526h1.36l3.275 5.382h.061l-.061-1.426V.526h1.136v7.396H82.25l-3.437-5.66h-.062l.062 1.425v4.235h-1.136V.526z" fill="#4D537A"/><path d="M22.283 21.508c3.83-2.144 6.735-3.777 6.985-3.903.801-.435 1.628-1.583 0-2.475-.525-.28-3.355-1.863-6.985-3.903l-5.032 5.178 5.032 5.102z" fill="#FFD900"/><path d="M17.25 16.408 1.226 32.862c.376.051.8-.05 1.302-.331 1.05-.586 12.192-6.786 19.755-11.02l-5.033-5.103z" fill="#F43249"/><path d="m17.251 16.407 5.032-5.153S3.656.896 2.528.285A1.918 1.918 0 0 0 1.203.028L17.25 16.406z" fill="#00EE76"/><path d="M17.25 16.404 1.203.025C.55.18 0 .765 0 1.964v28.955c0 1.098.426 1.889 1.227 1.964l16.023-16.48z" fill="#00D3FF"/></svg>