<svg fill="none" xmlns="http://www.w3.org/2000/svg" viewBox="0 0 133 34"><path d="M20.49 15.966a6.819 6.819 0 0 1 3.263-5.725 7.005 7.005 0 0 0-2.41-2.138 7.038 7.038 0 0 0-3.116-.836c-2.325-.243-4.58 1.385-5.764 1.385-1.208 0-3.033-1.361-4.997-1.321a7.375 7.375 0 0 0-3.595 1.068 7.343 7.343 0 0 0-2.6 2.693c-2.677 4.617-.68 11.401 1.886 15.133 1.283 1.827 2.783 3.869 4.746 3.796 1.92-.08 2.638-1.22 4.957-1.22 2.297 0 2.97 1.22 4.972 1.174 2.061-.033 3.36-1.835 4.598-3.68a15.087 15.087 0 0 0 2.103-4.264 6.615 6.615 0 0 1-2.938-2.426 6.573 6.573 0 0 1-1.104-3.639zM16.708 4.813A6.698 6.698 0 0 0 18.251 0a6.875 6.875 0 0 0-4.441 2.288 6.384 6.384 0 0 0-1.584 4.635 5.697 5.697 0 0 0 4.482-2.11zm26.826 20.764h-6.303l-1.513 4.45h-2.67l5.97-16.465h2.774l5.97 16.465h-2.715l-1.513-4.45zm-5.65-2.054h4.996l-2.463-7.222h-.069l-2.464 7.222zm22.772.502c0 3.73-2.005 6.127-5.031 6.127a4.1 4.1 0 0 1-2.2-.508 4.078 4.078 0 0 1-1.594-1.592h-.057v5.945h-2.475V18.022h2.396v1.997h.045a4.267 4.267 0 0 1 1.625-1.59 4.292 4.292 0 0 1 2.214-.532c3.06 0 5.077 2.408 5.077 6.128zm-2.544 0c0-2.43-1.261-4.028-3.186-4.028-1.89 0-3.162 1.631-3.162 4.028 0 2.419 1.271 4.038 3.162 4.038 1.925 0 3.186-1.586 3.186-4.038zm15.814 0c0 3.73-2.006 6.127-5.032 6.127a4.1 4.1 0 0 1-2.2-.508 4.078 4.078 0 0 1-1.594-1.592h-.057v5.945h-2.475V18.022h2.396v1.997h.045a4.268 4.268 0 0 1 1.625-1.59 4.291 4.291 0 0 1 2.214-.532c3.06 0 5.078 2.408 5.078 6.128zm-2.545 0c0-2.43-1.261-4.028-3.186-4.028-1.89 0-3.162 1.631-3.162 4.028 0 2.419 1.272 4.038 3.162 4.038 1.925 0 3.186-1.586 3.186-4.038zm11.314 1.415c.183 1.633 1.776 2.705 3.953 2.705 2.086 0 3.587-1.072 3.587-2.544 0-1.278-.905-2.043-3.048-2.567l-2.144-.514c-3.036-.73-4.446-2.145-4.446-4.439 0-2.84 2.487-4.792 6.016-4.792 3.496 0 5.891 1.951 5.972 4.792h-2.498c-.15-1.643-1.514-2.635-3.508-2.635-1.993 0-3.357 1.004-3.357 2.464 0 1.164.87 1.849 3.002 2.373l1.822.446c3.393.799 4.801 2.156 4.801 4.564 0 3.08-2.463 5.01-6.382 5.01-3.667 0-6.143-1.885-6.303-4.863h2.533zM98.19 15.183v2.84h2.293v1.952H98.19v6.617c0 1.028.46 1.507 1.467 1.507a7.79 7.79 0 0 0 .814-.057v1.94a6.822 6.822 0 0 1-1.374.114c-2.441 0-3.393-.913-3.393-3.241v-6.88h-1.753v-1.952h1.753v-2.84h2.487zm3.62 8.842c0-3.777 2.234-6.15 5.718-6.15 3.495 0 5.719 2.373 5.719 6.15 0 3.787-2.212 6.15-5.719 6.15-3.506 0-5.718-2.363-5.718-6.15zm8.915 0c0-2.59-1.192-4.12-3.197-4.12-2.006 0-3.198 1.541-3.198 4.12 0 2.601 1.192 4.119 3.198 4.119 2.005 0 3.197-1.518 3.197-4.119zm4.562-6.003h2.36v2.043h.058a2.859 2.859 0 0 1 1.063-1.597 2.885 2.885 0 0 1 1.837-.571c.285-.001.569.03.847.092v2.304c-.36-.11-.735-.16-1.111-.149a2.504 2.504 0 0 0-1.928.79 2.474 2.474 0 0 0-.651 1.972v7.12h-2.475V18.022zm17.575 8.478c-.333 2.18-2.464 3.675-5.191 3.675-3.507 0-5.684-2.34-5.684-6.093 0-3.765 2.188-6.207 5.58-6.207 3.335 0 5.433 2.281 5.433 5.921v.844h-8.515v.15a3.114 3.114 0 0 0 .851 2.428 3.147 3.147 0 0 0 2.392.971 2.735 2.735 0 0 0 2.784-1.688h2.35zm-8.365-3.582h6.027a2.869 2.869 0 0 0-.81-2.166 2.907 2.907 0 0 0-2.147-.88 3.057 3.057 0 0 0-2.839 1.877c-.154.37-.232.768-.231 1.17zM37.575 1.178a3.515 3.515 0 0 1 3.738 3.948c0 2.538-1.372 3.997-3.738 3.997h-2.87V1.178h2.87zM35.939 8h1.498a2.498 2.498 0 0 0 2.62-2.858 2.505 2.505 0 0 0-2.62-2.841h-1.498V8zm6.769-1.876a2.84 2.84 0 1 1 5.655 0 2.842 2.842 0 1 1-5.655 0zm4.438 0c0-1.3-.584-2.06-1.609-2.06-1.028 0-1.607.76-1.607 2.06 0 1.31.579 2.064 1.607 2.064 1.025 0 1.609-.76 1.609-2.064zm8.734 2.999h-1.227l-1.24-4.416h-.093l-1.234 4.416H50.87l-1.653-5.996h1.2l1.075 4.575h.088l1.233-4.575h1.135l1.233 4.575h.094l1.069-4.575h1.183l-1.646 5.996zm3.037-5.997h1.14v.953h.088a1.795 1.795 0 0 1 1.789-1.069 1.95 1.95 0 0 1 2.075 2.23v3.882h-1.183V5.538c0-.964-.419-1.443-1.294-1.443a1.375 1.375 0 0 0-1.432 1.52v3.507h-1.183V3.126zm6.978-2.34h1.183v8.337h-1.183V.786zm2.828 5.338a2.84 2.84 0 1 1 5.656 0 2.842 2.842 0 1 1-5.656 0zm4.439 0c0-1.3-.584-2.06-1.609-2.06-1.029 0-1.607.76-1.607 2.06 0 1.31.578 2.064 1.607 2.064 1.025 0 1.609-.759 1.609-2.064zm2.464 1.305c0-1.08.803-1.702 2.23-1.79l1.624-.094v-.517c0-.634-.419-.991-1.228-.991-.66 0-1.118.242-1.25.666h-1.145c.12-1.03 1.09-1.69 2.45-1.69 1.503 0 2.351.748 2.351 2.015v4.097h-1.14v-.843h-.093a2.017 2.017 0 0 1-1.8.941 1.811 1.811 0 0 1-2-1.794zm3.854-.512v-.502l-1.464.094c-.826.055-1.2.336-1.2.865 0 .54.468.853 1.111.853a1.413 1.413 0 0 0 1.553-1.31zm2.733-.795c0-1.894.974-3.095 2.49-3.095A1.977 1.977 0 0 1 86.54 4.08h.089V.786h1.183v8.337h-1.134v-.947h-.094a2.081 2.081 0 0 1-1.883 1.046c-1.525 0-2.489-1.2-2.489-3.1zm1.223 0c0 1.272.6 2.038 1.602 2.038.997 0 1.614-.777 1.614-2.032 0-1.25-.623-2.037-1.614-2.037-.996 0-1.602.77-1.602 2.031zm9.274.002a2.842 2.842 0 1 1 5.655 0 2.84 2.84 0 1 1-5.656 0zm4.438 0c0-1.3-.584-2.06-1.61-2.06-1.028 0-1.606.76-1.606 2.06 0 1.31.578 2.064 1.607 2.064 1.025 0 1.608-.76 1.608-2.064zm2.805-2.998h1.139v.953h.088a1.794 1.794 0 0 1 1.79-1.069 1.952 1.952 0 0 1 2.075 2.23v3.882h-1.183V5.538c0-.964-.419-1.443-1.294-1.443a1.378 1.378 0 0 0-1.432 1.52v3.507h-1.183V3.126zm11.779-1.492v1.52h1.299v.997h-1.299v3.083c0 .628.259.903.848.903.15 0 .301-.01.451-.027v.986a3.89 3.89 0 0 1-.644.06c-1.316 0-1.84-.463-1.84-1.619V4.151h-.952v-.997h.952v-1.52h1.185zm2.915-.848h1.173v3.305h.094a1.84 1.84 0 0 1 1.828-1.075 1.974 1.974 0 0 1 2.065 2.236v3.871h-1.184v-3.58c0-.957-.446-1.442-1.282-1.442a1.403 1.403 0 0 0-1.432.92c-.07.192-.096.397-.078.6v3.502h-1.183l-.001-8.337zm12.06 6.72a2.435 2.435 0 0 1-2.598 1.734 2.726 2.726 0 0 1-2.677-1.927 2.73 2.73 0 0 1-.093-1.167 2.762 2.762 0 0 1 1.614-2.893 2.77 2.77 0 0 1 1.151-.24c1.668 0 2.675 1.14 2.675 3.023v.413h-4.234v.066a1.578 1.578 0 0 0 .418 1.212 1.582 1.582 0 0 0 1.178.506 1.436 1.436 0 0 0 1.427-.727h1.139zm-4.163-1.933h3.029a1.443 1.443 0 0 0-.887-1.443 1.45 1.45 0 0 0-.589-.11 1.532 1.532 0 0 0-1.552 1.553h-.001z" fill="#4D537A"/></svg>